<svg width="15" height="13" viewBox="0 0 15 13" fill="none" xmlns="http://www.w3.org/2000/svg">
<path d="M12.7177 1.75087C12.7135 1.74279 12.7066 1.73646 12.6982 1.73301C11.7256 1.2868 10.6993 0.968618 9.64495 0.786425C9.63537 0.784644 9.62548 0.785929 9.61667 0.790097C9.60786 0.794264 9.60059 0.801103 9.5959 0.809639C9.45615 1.06329 9.32928 1.32382 9.21579 1.59025C8.07922 1.41772 6.92312 1.41772 5.78655 1.59025C5.67231 1.32315 5.54341 1.06254 5.40045 0.809639C5.39555 0.801288 5.38824 0.794607 5.37949 0.790467C5.37073 0.786326 5.36093 0.784918 5.35137 0.786425C4.29687 0.968235 3.2705 1.28644 2.29809 1.73304C2.28977 1.73656 2.28274 1.74259 2.27799 1.75028C0.333365 4.65432 -0.199341 7.48696 0.0619865 10.2845C0.0627216 10.2914 0.0648281 10.298 0.0681807 10.304C0.0715333 10.3101 0.0760635 10.3154 0.0815018 10.3196C1.21384 11.158 2.48037 11.798 3.82705 12.2122C3.83653 12.215 3.84666 12.2149 3.85607 12.2118C3.86548 12.2087 3.87372 12.2028 3.87968 12.1949C4.16892 11.8014 4.4252 11.3846 4.64593 10.949C4.64896 10.943 4.6507 10.9364 4.65101 10.9297C4.65133 10.923 4.65022 10.9163 4.64777 10.9101C4.64531 10.9039 4.64156 10.8982 4.63676 10.8935C4.63197 10.8889 4.62623 10.8852 4.61994 10.8829C4.21579 10.7283 3.82453 10.5419 3.44983 10.3255C3.44302 10.3215 3.43731 10.3158 3.43319 10.3091C3.42906 10.3024 3.42666 10.2947 3.4262 10.2868C3.42573 10.279 3.42721 10.2711 3.43051 10.2639C3.43381 10.2567 3.43882 10.2505 3.44511 10.2457C3.52396 10.1868 3.60144 10.1261 3.67748 10.0637C3.68415 10.0582 3.69223 10.0546 3.70079 10.0535C3.70935 10.0523 3.71807 10.0536 3.72595 10.0571C6.18078 11.1775 8.83847 11.1775 11.2642 10.0571C11.2722 10.0534 11.281 10.0519 11.2896 10.053C11.2983 10.054 11.3065 10.0575 11.3133 10.0631C11.3895 10.1259 11.4671 10.1868 11.5463 10.2457C11.5526 10.2504 11.5577 10.2567 11.561 10.2638C11.5644 10.2709 11.5659 10.2788 11.5655 10.2867C11.5651 10.2946 11.5627 10.3022 11.5587 10.309C11.5546 10.3158 11.5489 10.3214 11.5422 10.3255C11.1683 10.5437 10.7767 10.73 10.3715 10.8824C10.3652 10.8847 10.3595 10.8884 10.3547 10.8932C10.3499 10.898 10.3462 10.9037 10.3438 10.91C10.3414 10.9162 10.3404 10.923 10.3407 10.9297C10.3411 10.9364 10.3429 10.943 10.346 10.949C10.5704 11.3822 10.8263 11.7984 11.1116 12.1942C11.1174 12.2024 11.1256 12.2085 11.1351 12.2117C11.1445 12.2149 11.1547 12.215 11.1643 12.2121C12.5134 11.7993 13.7821 11.1593 14.9159 10.3196C14.9214 10.3156 14.926 10.3104 14.9293 10.3045C14.9327 10.2985 14.9348 10.2919 14.9354 10.2851C15.2482 7.05084 14.4116 4.24141 12.7177 1.75087ZM5.01254 8.58109C4.27346 8.58109 3.66447 7.90285 3.66447 7.06989C3.66447 6.23693 4.26164 5.55864 5.01254 5.55864C5.7693 5.55864 6.37239 6.24282 6.36058 7.06984C6.36058 7.90285 5.76338 8.58109 5.01254 8.58109ZM9.99674 8.58109C9.25768 8.58109 8.6487 7.90285 8.6487 7.06989C8.6487 6.23693 9.24587 5.55864 9.99674 5.55864C10.7536 5.55864 11.3566 6.24282 11.3448 7.06984C11.3448 7.90285 10.7536 8.58109 9.99674 8.58109Z" fill="#FFFCFC"/>
</svg>
