<svg width="15" height="13" viewBox="0 0 15 13" fill="none" xmlns="http://www.w3.org/2000/svg">
<path d="M13.8027 1.93555L15 0.785156V0.533203H10.8535L7.89844 7.92383L4.53711 0.533203H0.189453V0.785156L1.58789 2.47656C1.72461 2.60156 1.79492 2.78516 1.77734 2.96875V9.61523C1.82031 9.85547 1.74414 10.0996 1.57617 10.2734L0 12.1934V12.4414H4.46484V12.1895L2.89062 10.2754C2.7207 10.1016 2.63867 9.85937 2.67383 9.61719V3.86719L6.59375 12.4453H7.04883L10.4199 3.86719V10.7012C10.4199 10.8809 10.4199 10.918 10.3027 11.0371L9.08984 12.2148V12.4668H14.9727V12.2148L13.8027 11.0645C13.7012 10.9863 13.6484 10.8555 13.6699 10.7285V2.27148C13.6484 2.14453 13.7012 2.01367 13.8027 1.93555Z" fill="#FFFCFC"/>
</svg>
