<svg width="15" height="13" viewBox="0 0 15 13" fill="none" xmlns="http://www.w3.org/2000/svg">
<path d="M13.4728 3.73069C13.4728 3.58998 13.4701 3.45086 13.4639 3.3127C14.0654 2.86452 14.5872 2.30349 15 1.66151C14.4395 1.91372 13.843 2.07691 13.2322 2.14517C13.8679 1.75393 14.3555 1.12821 14.5859 0.377324C13.9906 0.738348 13.3321 0.99645 12.632 1.13094C12.0711 0.492629 11.2705 0.0860697 10.3856 0.070962C8.68592 0.0428632 7.30812 1.47916 7.30812 3.27859C7.30812 3.53436 7.33487 3.78241 7.38798 4.02194C4.82855 3.85724 2.56056 2.525 1.04347 0.516654C0.77875 0.997826 0.626879 1.56017 0.626879 2.16281C0.626879 3.30264 1.1702 4.31571 1.99573 4.91351C1.49035 4.89065 1.01693 4.73759 0.60169 4.48663V4.52849C0.60169 6.12155 1.66283 7.45629 3.07084 7.76771C2.81271 7.84113 2.54045 7.87933 2.26045 7.87796C2.0659 7.87695 1.87198 7.85572 1.68183 7.81459C2.07307 9.12007 3.21014 10.0738 4.55632 10.1056C3.50275 10.9792 2.17557 11.501 0.734644 11.4974C0.486199 11.4974 0.240692 11.4807 0 11.4505C1.36247 12.3851 2.97977 12.9294 4.71835 12.9294C10.3778 12.9307 13.4728 8.00469 13.4728 3.73069Z" fill="white"/>
</svg>
